<svg width="20" height="21" viewBox="0 0 20 21" fill="none" xmlns="http://www.w3.org/2000/svg">
<g id="vuesax/linear/shopping-cart">
<g id="shopping-cart">
<path id="Vector" d="M1.6665 2.15674H3.11651C4.01651 2.15674 4.72484 2.93174 4.64984 3.8234L3.95817 12.1234C3.8415 13.4817 4.9165 14.6484 6.28317 14.6484H15.1582C16.3582 14.6484 17.4082 13.6651 17.4998 12.4734L17.9498 6.22341C18.0498 4.84008 16.9998 3.71507 15.6082 3.71507H4.84984" stroke="white" stroke-width="1.5" stroke-miterlimit="10" stroke-linecap="round" stroke-linejoin="round"/>
<path id="Vector_2" d="M13.5417 18.8233C14.117 18.8233 14.5833 18.357 14.5833 17.7817C14.5833 17.2064 14.117 16.74 13.5417 16.74C12.9664 16.74 12.5 17.2064 12.5 17.7817C12.5 18.357 12.9664 18.8233 13.5417 18.8233Z" stroke="white" stroke-width="1.5" stroke-miterlimit="10" stroke-linecap="round" stroke-linejoin="round"/>
<path id="Vector_3" d="M6.87516 18.8233C7.45046 18.8233 7.91683 18.357 7.91683 17.7817C7.91683 17.2064 7.45046 16.74 6.87516 16.74C6.29987 16.74 5.8335 17.2064 5.8335 17.7817C5.8335 18.357 6.29987 18.8233 6.87516 18.8233Z" stroke="white" stroke-width="1.5" stroke-miterlimit="10" stroke-linecap="round" stroke-linejoin="round"/>
<path id="Vector_4" d="M7.5 7.15674H17.5" stroke="white" stroke-width="1.5" stroke-miterlimit="10" stroke-linecap="round" stroke-linejoin="round"/>
</g>
</g>
</svg>
